<svg version="1.0" xmlns="http://www.w3.org/2000/svg"
 width="2000.000000" height="640.000000" viewBox="0 0 2000.000000 640.000000"
 preserveAspectRatio="xMidYMid meet">
<metadata>
Created by potrace 1.16, written by Peter Selinger 2001-2019
</metadata>
<g transform="translate(0.000000,640.000000) scale(0.100000,-0.100000)"
fill="#ffffff" stroke="none">
<path d="M1940 5005 l0 -325 205 0 205 0 0 -1183 c0 -651 -3 -1198 -6 -1215
l-6 -32 -199 0 -199 0 0 -325 0 -325 880 0 880 0 0 325 0 325 -205 0 -205 0 2
417 3 418 127 3 126 3 20 -28 c10 -15 119 -190 242 -388 122 -198 234 -379
249 -401 14 -23 114 -184 221 -357 l195 -317 553 0 552 0 -2 322 -3 323 -193
5 -193 5 -94 145 c-51 80 -121 188 -155 240 -34 52 -91 141 -128 198 -37 56
-168 257 -290 447 l-224 345 27 32 c15 18 184 206 374 419 190 212 389 433
441 492 l95 107 158 0 157 0 0 325 0 325 -805 0 -805 0 0 -325 0 -324 146 -3
146 -3 -333 -367 -334 -368 -137 0 -138 0 0 370 0 370 175 0 175 0 0 325 0
325 -850 0 -850 0 0 -325z"/>
<path d="M6925 4295 c-514 -80 -847 -363 -994 -841 -100 -327 -104 -769 -10
-1087 134 -453 448 -722 954 -819 106 -20 149 -23 365 -22 225 0 256 3 375 27
365 75 598 244 747 542 41 81 82 194 74 202 -3 3 -65 16 -138 29 -357 64 -547
96 -584 101 l-41 5 -13 -46 c-17 -61 -69 -129 -124 -161 -56 -33 -160 -55
-261 -55 -325 0 -469 135 -500 473 l-7 77 837 0 837 0 -5 283 c-6 312 -18 403
-76 577 -60 178 -140 310 -257 427 -155 152 -362 247 -634 288 -117 18 -432
18 -545 0z m373 -620 c136 -41 221 -184 222 -372 l0 -53 -371 0 -371 0 7 43
c38 222 116 337 260 383 56 18 191 17 253 -1z"/>
<path d="M9870 4303 c-67 -7 -195 -34 -278 -59 -385 -116 -659 -400 -776 -807
-51 -177 -70 -326 -69 -547 0 -212 12 -320 53 -482 63 -246 195 -461 370 -601
229 -183 510 -273 885 -284 461 -14 783 85 1006 307 91 90 137 154 192 266 43
86 82 192 74 201 -4 3 -66 17 -139 30 -240 43 -542 95 -583 100 l-40 5 -14
-47 c-18 -61 -65 -123 -122 -157 -118 -73 -388 -78 -534 -9 -139 65 -203 187
-230 439 l-7 62 841 0 841 0 0 118 c-1 314 -32 581 -90 751 -134 400 -434 639
-883 705 -96 15 -393 20 -497 9z m358 -643 c108 -47 167 -155 179 -327 l6 -83
-371 0 -371 0 5 33 c44 244 110 344 259 394 65 21 228 12 293 -17z"/>
<path d="M13520 4303 c-309 -48 -531 -203 -672 -468 l-37 -70 -1 232 0 233
-562 2 c-310 2 -580 2 -601 0 l-37 -3 2 -312 3 -312 193 -3 192 -2 0 -685 0
-685 -150 0 -150 0 0 -315 0 -315 710 0 710 0 0 315 0 315 -120 0 c-89 0 -120
3 -120 13 -1 6 0 188 0 404 1 440 -1 426 82 588 126 245 297 360 492 331 89
-14 155 -101 182 -243 11 -59 14 -181 14 -562 0 -267 0 -496 0 -508 0 -23 -2
-23 -120 -23 l-120 0 0 -315 0 -315 710 0 710 0 0 315 0 315 -150 0 -150 0 0
615 c0 500 -3 635 -15 725 -38 269 -128 456 -278 575 -104 83 -209 129 -351
154 -56 10 -311 13 -366 4z"/>
<path d="M15663 4232 l-653 -2 0 -315 0 -315 129 0 128 0 27 -59 c14 -32 62
-134 107 -227 45 -93 95 -198 111 -234 17 -36 65 -139 108 -230 43 -91 135
-286 205 -435 70 -148 183 -388 251 -533 l124 -263 -30 -172 c-49 -279 -76
-360 -146 -437 -66 -73 -198 -97 -295 -53 -53 24 -120 80 -160 136 l-28 38
-143 -193 c-176 -236 -252 -339 -262 -356 -22 -37 128 -175 272 -250 266 -139
688 -135 975 9 174 88 303 223 405 424 71 141 103 268 178 695 13 69 94 283
426 1113 l410 1027 129 0 129 0 0 315 0 315 -47 0 c-105 0 -1229 0 -1245 0
-17 0 -18 -22 -18 -315 l0 -315 110 0 c64 0 110 -4 110 -10 0 -8 -111 -333
-200 -585 -16 -44 -56 -161 -90 -260 -34 -99 -66 -187 -70 -195 -9 -15 -8 -16
-82 165 -22 55 -112 274 -199 487 -88 213 -159 389 -159 392 0 3 48 7 108 8
l107 3 3 311 2 312 -37 3 c-21 2 -332 3 -690 1z"/>
</g>
</svg>
