<svg version="1.0" xmlns="http://www.w3.org/2000/svg"
 width="2000.000000" height="899.000000" viewBox="0 0 2000.000000 899.000000"
 preserveAspectRatio="xMidYMid meet">
<metadata>
Created by potrace 1.16, written by Peter Selinger 2001-2019
</metadata>
<g transform="translate(0.000000,899.000000) scale(0.100000,-0.100000)"
fill="#263238" stroke="none">
<path d="M10175 7023 c-22 -14 -74 -54 -115 -88 -94 -77 -108 -85 -163 -85
-37 0 -58 9 -134 59 -96 63 -185 111 -205 111 -7 0 -19 -4 -27 -9 -12 -8 -10
-21 13 -85 38 -103 33 -117 -23 -75 -48 34 -145 85 -201 106 -67 24 -91 12
-67 -35 8 -15 28 -54 46 -87 33 -64 30 -75 -16 -52 -15 8 -66 27 -113 42 -76
26 -99 29 -227 29 -103 1 -145 -3 -155 -12 -17 -17 -5 -24 86 -52 125 -38 161
-55 164 -78 4 -23 -8 -28 -158 -57 -169 -34 -332 -101 -439 -180 -105 -78
-213 -219 -267 -349 l-18 -44 -206 -4 c-194 -5 -209 -6 -280 -33 -217 -81
-358 -218 -458 -447 -137 -312 -145 -699 -20 -932 73 -137 112 -190 190 -260
63 -57 67 -76 17 -76 -89 0 -595 -163 -551 -178 6 -2 80 12 164 32 303 69 433
86 674 86 l193 0 21 -69 c33 -102 33 -101 -90 -122 -379 -64 -560 -114 -779
-215 -52 -24 -92 -46 -89 -49 2 -3 31 4 64 14 184 60 449 118 689 150 246 33
257 34 278 22 24 -13 100 -120 97 -136 -1 -5 -43 -20 -93 -32 -168 -41 -444
-149 -614 -239 -90 -48 -163 -94 -151 -94 4 0 72 24 150 54 269 101 615 200
743 212 60 6 60 6 125 -43 36 -27 94 -69 130 -93 217 -145 316 -294 341 -518
11 -100 6 -257 -13 -347 -24 -122 -93 -307 -166 -445 -54 -101 -467 -928 -544
-1090 -104 -214 -127 -268 -121 -274 4 -3 56 -6 116 -6 l110 0 38 40 c102 107
421 530 537 713 61 96 171 302 203 382 56 138 93 258 126 410 27 127 24 466
-6 605 -20 96 -76 256 -106 305 -64 103 -119 181 -200 281 -52 66 -95 124 -95
130 0 17 42 24 190 30 74 3 146 8 160 11 l25 6 -30 8 c-16 5 -118 14 -225 19
l-195 10 -27 33 c-41 49 -53 76 -41 88 11 11 250 -3 368 -22 33 -5 76 -9 95
-8 l35 1 -30 13 c-48 22 -188 52 -345 74 -80 12 -155 23 -167 26 -25 6 -73 95
-76 142 l-2 28 85 -3 c72 -2 147 -13 417 -59 33 -6 56 -26 158 -148 111 -132
240 -268 293 -309 69 -52 97 -67 199 -104 43 -16 134 -57 203 -91 147 -72 241
-96 340 -86 66 7 203 52 248 81 54 36 135 76 190 95 217 75 376 222 510 473
85 158 89 163 124 170 100 18 278 35 383 37 170 2 155 7 155 -49 0 -27 -5 -74
-11 -104 l-11 -55 -52 -7 c-28 -3 -80 -6 -116 -6 -36 0 -121 -7 -190 -16 -69
-8 -152 -18 -185 -21 -132 -12 -60 -18 210 -18 176 0 288 -4 294 -10 6 -6 3
-23 -7 -47 l-17 -38 -135 -1 c-133 -1 -134 -1 -80 -14 30 -7 81 -16 113 -20
38 -4 60 -12 64 -21 12 -32 -125 -210 -368 -479 -227 -252 -289 -422 -291
-799 0 -204 8 -275 62 -496 85 -352 260 -695 502 -986 66 -79 99 -105 65 -52
-80 124 -272 494 -319 612 -10 27 -28 70 -40 95 -36 79 -89 223 -84 228 2 2
16 -17 31 -44 90 -159 186 -314 314 -508 81 -123 178 -286 221 -370 l76 -150
147 -3 c121 -2 147 0 147 11 0 17 -221 531 -315 732 -20 44 -48 107 -62 140
-14 33 -35 80 -48 105 -13 25 -32 65 -43 90 -11 25 -42 97 -70 160 -114 260
-140 333 -178 485 -24 95 -28 130 -28 260 0 133 3 160 27 238 50 167 79 209
317 450 l215 219 50 -7 c56 -7 74 -11 270 -61 77 -19 200 -55 274 -80 74 -24
136 -42 139 -39 12 11 -317 150 -441 186 -40 11 -105 30 -146 42 -40 11 -75
27 -78 34 -9 22 30 83 55 90 27 7 118 -3 222 -23 41 -8 102 -19 135 -25 176
-33 489 -116 678 -180 49 -17 93 -29 99 -27 26 9 -314 161 -452 201 -232 69
-530 137 -595 137 -43 0 -46 19 -24 133 l22 105 156 6 c86 4 198 9 249 12 70
4 124 0 220 -16 157 -27 319 -62 437 -95 161 -44 155 -29 -16 38 -125 49 -287
95 -443 126 -54 10 -99 21 -101 23 -2 2 31 41 74 87 68 74 80 83 103 78 14 -4
54 -11 89 -16 98 -15 172 -29 194 -36 15 -5 17 -4 5 3 -21 14 -187 69 -233 77
-21 4 -41 14 -44 21 -3 8 9 53 27 101 44 124 60 219 60 368 0 151 -19 272 -62
400 -106 312 -243 480 -476 581 -108 47 -213 60 -360 46 -162 -17 -165 -18
-159 -56 3 -17 10 -43 15 -57 l11 -27 198 -6 c191 -6 200 -8 258 -35 33 -16
79 -44 102 -62 134 -108 227 -329 264 -626 31 -255 -65 -505 -248 -646 -32
-24 -80 -55 -108 -69 -74 -37 -194 -82 -201 -76 -3 4 -19 59 -35 123 -37 147
-64 212 -183 436 -71 133 -115 232 -167 377 -100 278 -142 360 -230 449 -85
85 -173 135 -284 160 -66 14 -88 15 -147 5 -192 -33 -330 -178 -388 -407 -24
-97 -26 -249 -6 -359 8 -41 38 -143 65 -226 58 -173 71 -239 71 -367 0 -55 4
-93 10 -93 5 0 54 22 107 49 146 74 218 91 391 91 135 0 147 -2 196 -26 54
-27 118 -82 111 -95 -3 -4 -24 -10 -48 -14 -65 -10 -285 -64 -347 -85 -30 -10
-88 -28 -128 -41 -40 -12 -75 -27 -79 -32 -7 -12 22 -7 147 23 47 11 108 25
135 30 28 5 84 17 125 25 41 8 114 18 162 22 l87 6 20 -34 c12 -19 20 -43 19
-54 -3 -18 -18 -21 -163 -37 -88 -9 -189 -22 -225 -28 -36 -6 -83 -14 -104
-17 l-39 -6 6 33 7 33 -42 -45 c-38 -39 -58 -50 -156 -83 -62 -21 -116 -43
-119 -48 -4 -7 1 -8 13 -3 10 4 35 10 54 13 19 2 48 9 63 15 20 8 31 8 39 0
19 -19 -202 -326 -284 -397 -23 -19 -85 -57 -139 -85 l-97 -50 -127 0 c-145 0
-196 11 -230 52 -33 39 -45 88 -45 183 l0 80 98 45 c225 103 382 239 382 330
0 79 -112 176 -262 226 -296 101 -724 -8 -798 -201 -47 -123 73 -234 390 -361
l105 -42 -1 -104 c-1 -163 -28 -193 -201 -219 -107 -16 -188 -2 -301 52 -96
47 -166 108 -316 279 -226 256 -243 284 -153 249 28 -11 64 -26 80 -34 15 -7
27 -10 26 -7 0 9 -96 72 -108 72 -5 0 -11 3 -13 8 -7 15 -133 86 -167 93 -20
5 -111 34 -203 65 -190 64 -193 68 -91 121 157 83 339 70 620 -45 40 -16 75
-27 78 -24 3 3 5 51 5 106 1 113 13 187 58 357 66 249 48 520 -47 706 -33 65
-128 154 -206 193 -65 32 -78 35 -176 38 -104 4 -109 3 -180 -31 -200 -93
-311 -235 -399 -512 -70 -221 -94 -281 -212 -525 -38 -80 -76 -161 -85 -182
l-14 -36 -82 5 c-45 3 -84 7 -86 9 -2 2 17 35 42 75 26 39 51 94 58 124 15 69
6 337 -15 430 -53 233 -120 351 -236 419 l-33 19 6 -39 c4 -21 11 -59 16 -84
6 -25 10 -74 11 -109 l0 -64 -55 6 c-64 7 -67 0 -34 -73 32 -68 49 -131 49
-177 0 -36 -5 -46 -35 -70 -19 -15 -35 -31 -35 -34 0 -3 25 -39 55 -79 30 -40
55 -80 55 -88 0 -8 -16 -36 -35 -61 -19 -25 -35 -50 -35 -56 0 -5 28 -12 62
-15 l63 -5 33 -68 c27 -53 39 -68 60 -72 15 -3 46 -10 70 -15 23 -6 52 -10 63
-10 19 0 21 -4 16 -37 -17 -111 -29 -169 -37 -177 -5 -5 -55 14 -116 43 -178
85 -292 195 -369 355 -58 122 -68 179 -62 356 6 176 22 268 67 393 55 151 138
252 256 311 52 27 70 30 198 36 117 6 187 6 250 1 4 -1 5 -13 1 -28 -29 -117
-48 -226 -81 -473 -30 -232 -32 -373 -4 -258 5 18 15 58 23 88 8 30 25 100 37
155 51 224 93 374 127 455 113 264 363 488 675 604 165 62 240 77 403 83 230
9 320 -21 445 -147 81 -81 130 -166 170 -297 12 -37 24 -75 27 -83 3 -8 25 45
48 118 64 193 126 284 251 367 116 77 128 80 344 80 209 0 236 -4 411 -64 112
-38 226 -96 324 -166 98 -70 134 -103 190 -177 84 -109 125 -201 191 -427 10
-32 15 0 5 36 -5 21 -15 70 -21 108 -69 400 -198 624 -425 736 -79 39 -252 89
-310 89 -45 0 -166 27 -179 40 -16 16 13 35 93 60 128 41 172 62 169 79 -3 13
-20 17 -98 19 -119 4 -224 -17 -347 -69 -90 -38 -113 -45 -113 -34 0 3 18 39
40 79 45 82 51 116 20 116 -37 0 -165 -71 -240 -132 -36 -29 -66 -37 -57 -15
3 7 15 48 27 91 31 111 20 127 -55 79z m797 -1405 c88 -62 64 -205 -39 -229
-59 -13 -98 -2 -138 42 -42 47 -46 94 -12 154 37 66 123 81 189 33z m-1999
-52 c47 -19 70 -59 70 -123 0 -48 -4 -58 -33 -88 -43 -44 -88 -54 -142 -29
-59 27 -92 74 -85 125 7 50 29 84 70 109 38 23 75 25 120 6z m2494 -201 c43
-121 -52 -314 -195 -398 -76 -45 -142 -62 -232 -60 -120 1 -217 43 -279 121
-33 43 -66 111 -57 119 3 3 33 -17 66 -44 83 -68 132 -91 219 -101 84 -10 147
-1 204 29 123 63 184 155 217 322 14 69 35 74 57 12z m-3055 -135 c52 -202
216 -325 409 -307 76 7 146 40 229 111 54 47 65 52 68 37 9 -58 -109 -186
-200 -218 -38 -13 -82 -18 -158 -18 -99 0 -110 2 -171 32 -164 81 -267 241
-238 373 20 95 34 93 61 -10z m36 -761 c42 -11 100 -26 127 -34 74 -20 147
-45 170 -60 22 -13 71 -103 61 -112 -3 -3 -63 8 -133 25 -71 17 -173 38 -228
47 -142 22 -138 20 -132 65 5 39 33 90 48 90 5 0 44 -9 87 -21z m1291 -145
c24 -31 38 -111 22 -127 -24 -24 -81 57 -81 118 0 28 4 35 19 35 11 0 29 -12
40 -26z m-782 -1469 c-5 -199 -25 -325 -77 -495 -23 -76 -49 -123 -35 -65 4
17 11 50 15 75 5 25 14 68 20 95 22 100 39 234 50 405 6 96 14 186 18 200 l6
25 4 -25 c2 -14 2 -110 -1 -215z"/>
<path d="M10861 6409 c-82 -37 -209 -166 -322 -329 l-24 -35 30 22 c17 12 46
36 65 53 39 35 98 85 204 174 73 60 126 114 126 128 0 14 -33 8 -79 -13z"/>
<path d="M8850 6361 c0 -14 106 -108 244 -216 205 -161 206 -161 72 0 -87 105
-177 183 -244 211 -39 16 -72 18 -72 5z"/>
<path d="M11072 6319 c-79 -15 -198 -85 -312 -183 -58 -50 -62 -61 -14 -40 22
9 119 49 218 89 172 70 237 110 222 134 -8 13 -51 13 -114 0z"/>
<path d="M8630 6251 c-12 -8 -11 -14 8 -34 26 -28 74 -50 237 -110 66 -25 145
-55 175 -67 l55 -22 -25 27 c-37 39 -202 153 -263 180 -58 26 -164 41 -187 26z"/>
<path d="M11996 5804 c-39 -50 -96 -151 -96 -170 0 -16 54 44 95 107 41 62 65
119 51 119 -3 0 -26 -25 -50 -56z"/>
<path d="M12175 5811 c-66 -40 -124 -131 -155 -242 -73 -269 -83 -493 -27
-620 26 -58 76 -139 110 -176 19 -22 22 -22 39 -6 10 9 18 22 18 30 0 7 10 28
22 47 20 30 28 34 81 39 80 7 86 17 44 63 -57 65 -62 79 -36 122 13 20 33 51
45 67 12 17 27 40 33 53 11 21 9 24 -24 38 -64 26 -70 80 -24 211 16 48 33 96
36 107 5 17 2 18 -48 11 -30 -3 -63 -9 -73 -12 -18 -5 -18 0 -13 93 4 55 9
120 13 147 7 52 3 55 -41 28z"/>
<path d="M9905 4834 c-128 -15 -249 -66 -333 -140 -47 -41 -99 -110 -90 -119
2 -2 24 12 48 32 226 179 581 187 833 18 65 -43 67 -44 53 -17 -24 47 -131
138 -198 170 -91 42 -224 66 -313 56z"/>
<path d="M9330 3434 c0 -20 76 -121 134 -180 154 -153 314 -211 551 -201 205
9 325 59 462 192 75 72 98 105 75 105 -5 0 -38 -19 -73 -42 -82 -53 -209 -113
-285 -134 -81 -22 -260 -30 -348 -14 -85 14 -133 29 -212 67 -116 54 -176 96
-266 181 -21 20 -38 32 -38 26z"/>
<path d="M10804 3074 c-3 -10 -12 -33 -20 -50 -17 -38 -58 -204 -76 -304 -18
-104 -15 -406 4 -485 22 -87 26 -54 31 235 5 250 18 373 58 534 10 44 17 81
14 84 -2 3 -7 -4 -11 -14z"/>
<path d="M9127 2805 c-7 -158 -27 -280 -63 -404 -12 -39 36 64 56 121 17 49
23 94 27 203 2 77 1 158 -4 180 -8 33 -10 16 -16 -100z"/>
</g>
</svg>
